<?xml version="1.0" encoding="UTF-8"?>
<svg version="1.1" xmlns="http://www.w3.org/2000/svg" width="640" height="640">
<path d="M0 0 C211.2 0 422.4 0 640 0 C640 211.2 640 422.4 640 640 C428.8 640 217.6 640 0 640 C0 428.8 0 217.6 0 0 Z " fill="#EFBA78" transform="translate(0,0)"/>
<path d="M0 0 C211.2 0 422.4 0 640 0 C640 211.2 640 422.4 640 640 C428.8 640 217.6 640 0 640 C0 428.8 0 217.6 0 0 Z M75 68 C67.6879572 78.43067311 63.88068391 88.74393394 63.86857224 101.49832344 C63.8665196 102.2360939 63.86446697 102.97386436 63.86235213 103.7339915 C63.8566949 106.2076978 63.8581378 108.6813482 63.85955811 111.15505981 C63.85697374 112.94597464 63.85396038 114.73688889 63.8505547 116.52780235 C63.84248987 121.45076638 63.84069542 126.37371584 63.83995724 131.2966857 C63.83810579 136.60565678 63.83055798 141.91462032 63.82382202 147.22358704 C63.81024184 158.83317031 63.80421447 170.44275013 63.79981136 182.05234003 C63.79704841 189.30195215 63.79281096 196.55156294 63.78830719 203.80117416 C63.77611493 223.8747531 63.76581553 243.94833097 63.7624321 264.02191353 C63.76221253 265.30659495 63.76199297 266.59127638 63.76176675 267.91488754 C63.76154847 269.2026358 63.76133019 270.49038407 63.7611053 271.817155 C63.76066183 274.42660594 63.76021527 277.03605688 63.75976562 279.64550781 C63.7595442 280.9398845 63.75932277 282.2342612 63.75909463 283.56786142 C63.75514685 304.54003433 63.73769326 325.51217249 63.7144061 346.48433198 C63.69068842 368.01809757 63.67823006 389.55184572 63.67706418 411.08562458 C63.67614766 423.17523712 63.67040097 435.26480438 63.65224457 447.35440445 C63.63683799 457.64926022 63.63172644 467.94405672 63.63998267 478.23892184 C63.64388717 483.48998578 63.64296924 488.74093037 63.62892532 493.9919796 C63.61617469 498.80353742 63.61739421 503.61488634 63.62951604 508.42644392 C63.63147101 510.16267316 63.62840388 511.89891727 63.61967167 513.63512565 C63.53633348 531.33229758 66.62012559 547.48332827 78.9375 560.875 C89.18206092 570.45451345 102.71696689 576.34258651 116.7884779 576.25726891 C117.90574341 576.26252802 117.90574341 576.26252802 119.04557994 576.26789337 C121.53137269 576.27716731 124.01692909 576.27229448 126.50273132 576.26742554 C128.30703525 576.27116382 130.11133756 576.27576605 131.91563731 576.28115618 C136.86637249 576.29337963 141.81704005 576.29312648 146.76778686 576.29076743 C152.11015034 576.2903591 157.45249219 576.30140002 162.79484558 576.31088257 C173.2590392 576.32749014 183.72321028 576.33299201 194.18741598 576.33410732 C202.6944593 576.33505795 211.20149518 576.33916896 219.70853615 576.34550858 C243.83325855 576.3631206 267.95796317 576.37234755 292.08269205 576.37084763 C293.38305748 576.37076772 294.68342291 576.3706878 296.02319336 576.37060547 C297.97612619 576.37048283 297.97612619 576.37048283 299.96851221 576.37035771 C321.06599431 576.3695449 342.16340499 576.38868138 363.26086643 576.4168822 C384.92917534 576.44561726 406.59744944 576.45942214 428.26577789 576.45769465 C440.42862165 576.45703095 452.59139056 576.46251462 464.75421715 576.48405075 C475.11049674 576.50227072 485.46666754 576.50660315 495.82295623 576.4930319 C501.10456847 576.48650634 506.38597206 576.48637035 511.66756439 576.5037384 C516.50814255 576.51949217 521.34834701 576.51658184 526.18891618 576.49917014 C527.93452432 576.49610533 529.68016051 576.49971295 531.42573556 576.51089029 C549.11063299 576.61657761 563.4895904 572.82132733 576.64453125 560.44140625 C586.2912278 550.44275726 592.11824127 537.65856193 592.13142776 523.73215485 C592.1334804 522.9950037 592.13553303 522.25785255 592.13764787 521.49836349 C592.14332695 519.0147208 592.14185949 516.53113341 592.14044189 514.04748535 C592.14302502 512.25417183 592.14603804 510.46085889 592.1494453 508.66754675 C592.15752495 503.72866245 592.15930541 498.78979268 592.16004276 493.85090256 C592.16189169 488.52826293 592.1694383 483.20563087 592.17617798 477.88299561 C592.18976956 466.23817105 592.19578755 454.59334993 592.20018864 442.94851875 C592.20295016 435.6778112 592.20718739 428.40710497 592.21169281 421.13639832 C592.22388748 401.007999 592.2341858 380.87960075 592.2375679 360.75119781 C592.23789725 358.8181189 592.23789725 358.8181189 592.23823325 356.84598789 C592.23845153 355.55416847 592.23866981 354.26234906 592.2388947 352.93138361 C592.23933817 350.31363074 592.23978473 347.69587787 592.24023438 345.078125 C592.24056652 343.13037754 592.24056652 343.13037754 592.24090537 341.14328164 C592.24485218 320.10954962 592.26230176 299.07585226 592.2855939 278.04213363 C592.30931179 256.44967072 592.32176999 234.8572252 592.32293582 213.26474905 C592.32385243 201.14045417 592.32960114 189.01620444 592.34775543 176.891922 C592.36316244 166.56590966 592.36827338 156.23995642 592.36001733 145.91393477 C592.35611273 140.64668273 592.3570312 135.37954968 592.37107468 130.11231232 C592.383825 125.28587153 592.38260605 120.45963899 592.37048396 115.63319844 C592.36852891 113.89152588 592.37159649 112.14983851 592.38032833 110.40818673 C592.46812666 91.70462224 588.98487745 76.27645479 575.6328125 62.40625 C571.71542531 58.82596735 567.71379474 56.38052695 563 54 C562.18075198 53.56183382 561.36150396 53.12366763 560.51743025 52.67222369 C551.25533149 48.21572329 542.7561263 48.29625481 532.71253967 48.36508179 C530.87177923 48.35931306 529.03102455 48.35136691 527.19028181 48.34144557 C522.1572317 48.32065207 517.12465813 48.3308533 512.09160674 48.34637666 C506.65385821 48.35771706 501.21619006 48.34021406 495.77845764 48.32647705 C485.13562009 48.30426841 474.49295906 48.30903544 463.85011465 48.32354026 C455.198228 48.3348424 446.54639074 48.33635916 437.89449883 48.33092117 C436.66206699 48.33015501 435.42963515 48.32938884 434.1598569 48.32859946 C431.6560078 48.3270008 429.15215871 48.32537973 426.64830964 48.3237365 C403.84957649 48.30989187 381.05093327 48.3242382 358.25221542 48.35044949 C337.45918912 48.37417316 316.66631597 48.37205541 295.87329102 48.34814453 C272.49010503 48.32134472 249.10700367 48.31086195 225.72380441 48.32620585 C223.22897527 48.32779855 220.73414611 48.32937041 218.23931694 48.33092117 C216.39818084 48.33207824 216.39818084 48.33207824 214.51985006 48.33325868 C205.88157548 48.33757085 197.24335534 48.33029945 188.60508919 48.31852341 C178.07320117 48.30448121 167.54149941 48.30833456 157.00963265 48.33492713 C151.63885283 48.34804242 146.26838323 48.35325659 140.8976059 48.33668137 C135.97567968 48.32172146 131.05434965 48.33006948 126.1324771 48.35656913 C124.35738666 48.36212857 122.58224527 48.35937105 120.80718792 48.34719019 C102.66265041 48.23228401 86.90517688 53.49147977 75 68 Z " fill="#FEFEFE" transform="translate(0,0)"/>
<path d="M0 0 C-0.52268466 2.76276177 -1.10869587 5.3260876 -2 8 C0.31 8 2.62 8 5 8 C5 8.99 5 9.98 5 11 C4.34 11 3.68 11 3 11 C2.9071875 12.1446875 2.9071875 12.1446875 2.8125 13.3125 C2.544375 14.199375 2.27625 15.08625 2 16 C1.195625 16.4125 0.39125 16.825 -0.4375 17.25 C-3.39579304 18.88155468 -3.39579304 18.88155468 -4.1875 22.8125 C-4.4885882 24.53665601 -4.75483331 26.26700798 -5 28 C-5.17273438 29.18722656 -5.34546875 30.37445313 -5.5234375 31.59765625 C-5.87345201 34.05029415 -6.21140317 36.50469509 -6.53515625 38.9609375 C-7 42 -7 42 -8 45 C-9.99101907 57.04874424 -5.11741558 68.06188018 -1.02978516 79.16992188 C-0.12425763 81.65851247 0.72458815 84.15616966 1.55078125 86.671875 C3.84402288 93.38922526 6.01492191 98.29424109 12.36328125 101.921875 C13.23339844 102.27765625 14.10351562 102.6334375 15 103 C15.6192334 103.26200195 16.2384668 103.52400391 16.87646484 103.79394531 C23.27949284 106.25009894 29.20072632 106.38788134 36 106.25 C37.57201172 106.24226563 37.57201172 106.24226563 39.17578125 106.234375 C43.93367211 106.62508868 43.93367211 106.62508868 48 105 C48.99 104.87625 49.98 104.7525 51 104.625 C58.28568688 103.67145407 65.1752228 100.60582402 72 98 C72.28768854 94.95050143 72.42506483 92.04084842 72 89 C69.92798943 87.15412336 69.92798943 87.15412336 67 86 C60.4161263 81.75585001 60.4161263 81.75585001 59.51953125 77.97265625 C59.49476588 75.31285576 59.77264868 72.79223192 60.5078125 70.23046875 C61.07503032 67.65998163 61.18530495 65.14305614 61.28930664 62.51806641 C61.81303534 49.80235131 63.67677057 40.359088 73 31 C78.13933787 27.11694472 83.80164334 27.18567508 90 28 C101.16192327 30.77706505 109.79359658 36.67695284 116.0625 46.375 C119.90793271 53.02581956 119.87701903 60.51845285 119 68 C117.15994199 74.80287006 114.55737808 80.55409754 109 85 C109.44033992 86.98020421 109.44033992 86.98020421 111 89 C116.37199343 91.28045235 121.68392957 92.72272793 127.375 93.9375 C137.7717186 96.29782391 148.04442457 98.71378432 154.37719727 108.02490234 C158.28309543 114.58160247 161.79224618 121.31406124 165.23565674 128.12142944 C170.65406827 138.81527871 176.36173774 149.20797915 182.75 159.359375 C187.75616422 167.34105736 191.18246141 174.2485138 191.3125 183.75 C191.34150391 184.4409375 191.37050781 185.131875 191.40039062 185.84375 C191.50942098 194.76746514 186.03299098 200.84959141 180.14257812 206.98388672 C174.88478023 211.92212384 170.2527639 212.22664887 163.25 212.0078125 C159.9706364 211.99992941 158.74178167 212.38305183 156 214 C154.59466244 214.4154465 153.17712415 214.79200436 151.75 215.125 C150.5125 215.41375 149.275 215.7025 148 216 C148 220.06751057 148.0823504 220.60509737 150.2734375 223.66015625 C150.76368408 224.36140625 151.25393066 225.06265625 151.7590332 225.78515625 C152.29230225 226.53667969 152.82557129 227.28820312 153.375 228.0625 C165.63130142 245.92952852 178.24141731 267.03127211 178.125 289.25 C178.12886719 290.02996338 178.13273438 290.80992676 178.13671875 291.61352539 C178.13014733 295.7136835 177.9657763 299.71893365 177.4921875 303.79296875 C176.23065123 313.7901832 176.23065123 313.7901832 180.375 322.6875 C181.1071875 323.51765625 181.839375 324.3478125 182.59375 325.203125 C185.48295596 328.5613579 187.64536695 332.12331664 189.875 335.9375 C190.25575684 336.5771167 190.63651367 337.2167334 191.02880859 337.87573242 C192.0343864 339.57492884 193.01820537 341.2869517 194 343 C194.43570313 343.72316406 194.87140625 344.44632812 195.3203125 345.19140625 C196.22181917 347.59024296 196.01256607 348.65756606 195 351 C193.43359375 352.7109375 193.43359375 352.7109375 191.4375 354.375 C190.71433594 354.98214844 189.99117187 355.58929688 189.24609375 356.21484375 C187.19756043 357.84298241 185.11646263 359.39939745 183 360.9375 C176.03117133 366.10263184 168.40515265 372.84827094 165 381 C164.33452962 387.95301811 166.07360769 394.02099272 167.9375 400.6875 C168.48938678 402.71193853 169.04020615 404.73666841 169.58984375 406.76171875 C169.83597412 407.64819092 170.08210449 408.53466309 170.33569336 409.44799805 C170.98767539 411.95265374 171.51804782 414.45768084 172 417 C172.86625 417.061875 172.86625 417.061875 173.75 417.125 C177.32181802 418.51404034 178.29097034 420.64297746 180 424 C180.2204341 426.69024078 180.07817762 429.29449582 180 432 C180.55985596 431.98428955 181.11971191 431.9685791 181.6965332 431.95239258 C184.2350859 431.89000152 186.77347729 431.85099782 189.3125 431.8125 C190.63411133 431.77479492 190.63411133 431.77479492 191.98242188 431.73632812 C192.82998047 431.72666016 193.67753906 431.71699219 194.55078125 431.70703125 C195.33106689 431.6913208 196.11135254 431.67561035 196.9152832 431.65942383 C199.54591886 432.08918571 200.40934169 432.89630674 202 435 C202.3359375 437.59375 202.3359375 437.59375 202.375 440.5 C202.50504803 443.40749461 202.50504803 443.40749461 203 446 C205.24952182 448.11734188 205.24952182 448.11734188 208 449 C208.45375 449.474375 208.9075 449.94875 209.375 450.4375 C211.64237168 452.7449262 211.64237168 452.7449262 218 456 C218 465.24 218 474.48 218 484 C152 484 86 484 18 484 C20 478 20 478 21.07836914 475.48632812 C22.11666141 472.68527687 22.45745003 470.18986891 22.74609375 467.21875 C22.86146484 466.12949219 22.97683594 465.04023437 23.09570312 463.91796875 C23.32352936 461.63970639 23.54748963 459.36105412 23.76757812 457.08203125 C23.88423828 455.99277344 24.00089844 454.90351562 24.12109375 453.78125 C24.2183374 452.79189453 24.31558105 451.80253906 24.41577148 450.78320312 C25.08197053 447.60950103 26.04657776 445.58419115 28 443 C30.77710229 442.03544506 33.20905556 441.35997785 36.0625 440.8125 C41.51392309 439.92843908 41.51392309 439.92843908 46 437 C46.38883196 434.17326263 46.38883196 434.17326263 46.5 431 C46.77777778 425.22222222 46.77777778 425.22222222 49 423 C51.41743149 422.98554168 53.83578218 423.06205535 56.25 423.1875 C62.41704363 423.44936959 62.41704363 423.44936959 67.875 420.9375 C70.45893923 417.365584 71.07600084 415.40804868 71 411 C70.51015625 409.948125 70.0203125 408.89625 69.515625 407.8125 C67.35465478 403.02880837 67.62349734 398.30376178 67.73632812 393.140625 C67.73544511 388.96967427 67.73544511 388.96967427 65.65917969 385.52246094 C64.1202664 384.32982616 62.5606995 383.16397976 61 382 C60.1796875 379.71875 60.1796875 379.71875 59.875 377.5 C59.33876474 375.09737469 59.33876474 375.09737469 58 373 C55.00445038 371.30593561 52.08723948 370.21540381 48.8125 369.16796875 C45.55760012 367.81628116 44.83166268 366.95698987 43 364 C39.25678582 353.38755788 37.79232301 342.22782605 36.3125 331.125 C36.09913997 329.58321787 35.88494989 328.04155038 35.66992188 326.5 C35.09272892 322.33587506 34.54165206 318.16889814 34 314 C33.88148682 313.10829102 33.76297363 312.21658203 33.64086914 311.29785156 C32.94798694 305.69792941 32.80749268 300.13974208 32.8125 294.5 C32.81330566 293.5416626 32.81411133 292.5833252 32.81494141 291.59594727 C32.8882843 282.94939481 33.70053524 274.54519091 35 266 C35.13567383 265.09282227 35.27134766 264.18564453 35.41113281 263.25097656 C36.72628183 254.5677256 38.15694503 245.90461121 39.60449219 237.24267578 C40.00056459 234.87162013 40.39489331 232.50027895 40.7890625 230.12890625 C42.0108498 222.79602873 43.24789633 215.46914735 44.61914062 208.16235352 C46.1963552 199.20761667 43.65626193 193.70116829 39 186 C35.81482279 181.97661827 32.4723681 180.02569095 27.91015625 177.90234375 C26 177 26 177 23.4375 175.4375 C20.87975289 173.85575927 20.87975289 173.85575927 17.4375 172.5 C14.45676724 171.19931661 12.52063555 169.96924652 10 168 C8.906875 167.443125 7.81375 166.88625 6.6875 166.3125 C2.82974554 164.16838325 0.34561471 161.25730291 -2.43359375 157.875 C-4.01732911 155.88548233 -4.01732911 155.88548233 -6.25 154 C-11.19339408 148.35040676 -11.31635598 141.94862419 -10.875 134.875 C-10.79185547 133.71677734 -10.79185547 133.71677734 -10.70703125 132.53515625 C-10.54441624 128.38493837 -10.62122526 125.92684521 -13.40625 122.7109375 C-14.69015625 121.36902344 -14.69015625 121.36902344 -16 120 C-17.0390625 117.796875 -17.0390625 117.796875 -17.625 115.75 C-17.85316406 114.97269531 -18.08132812 114.19539063 -18.31640625 113.39453125 C-18.65478516 112.20923828 -18.65478516 112.20923828 -19 111 C-19.25652344 110.26136719 -19.51304687 109.52273437 -19.77734375 108.76171875 C-25.18767128 92.74607257 -24.52372068 75.19098659 -24.64526367 58.5 C-24.66754665 55.74531725 -24.71651857 52.99307461 -24.78881836 50.23925781 C-25.53431029 21.17387454 -25.53431029 21.17387454 -15 10 C-14.12549671 8.93998487 -13.25662704 7.87529813 -12.39331055 6.80615234 C-8.67788456 2.44982201 -5.81466742 0 0 0 Z " fill="#131010" transform="translate(209,92)"/>
</svg>
